<svg version="1.2" xmlns="http://www.w3.org/2000/svg" viewBox="0 0 372 612" width="372" height="612">
	<title>3216431-ai</title>
	<defs>
		<linearGradient id="g1" x1="684.1" y1="5.3" x2="684.1" y2="604.1" gradientUnits="userSpaceOnUse">
			<stop offset="0" stop-color="#71f2ff" stop-opacity="0"/>
			<stop offset="0" stop-color="#71f2ff" stop-opacity=".2"/>
			<stop offset="1" stop-color="#71f2ff" stop-opacity=".2"/>
		</linearGradient>
		<linearGradient id="g2" x1="632" y1="36.6" x2="632" y2="572.8" gradientUnits="userSpaceOnUse">
			<stop offset="0" stop-color="#71f2ff" stop-opacity="0"/>
			<stop offset="0" stop-color="#71f2ff" stop-opacity=".2"/>
			<stop offset="1" stop-color="#71f2ff" stop-opacity=".2"/>
		</linearGradient>
		<linearGradient id="g3" x1="328.4" y1="-281.5" x2="328.4" y2="697.7" gradientUnits="userSpaceOnUse">
			<stop offset="0" stop-color="#1c0c50" stop-opacity="0"/>
			<stop offset=".7" stop-color="#1c0a4e" stop-opacity="0"/>
			<stop offset=".8" stop-color="#1c094d" stop-opacity="1"/>
			<stop offset="1" stop-color="#1d064a" stop-opacity="1"/>
		</linearGradient>
	</defs>
	<style>
		tspan { white-space:pre } 
		.s0 { fill: url(#g1) } 
		.s1 { fill: none;stroke: #71f2ff;stroke-width: 2 } 
		.s2 { fill: url(#g2) } 
		.s3 { fill: url(#g3) } 
	</style>
	<g id="OBJECTS">
		<g id="&lt;Group&gt;">
			<g id="&lt;Group&gt;">
				<g id="&lt;Group&gt;">
					<g id="&lt;Group&gt;">
						<g id="&lt;Group&gt;">
							<g id="&lt;Group&gt;">
								<path id="&lt;Path&gt;" class="s0" d="m333.9 604.1h-295.8c-17.7 0-32.1-14.3-32.1-32v-534.7c0-17.7 14.4-32.1 32.1-32.1h295.8c17.7 0 32.1 14.4 32.1 32.1v534.7c0 17.7-14.4 32-32.1 32z"/>
								<path id="&lt;Path&gt;" class="s1" d="m333.9 604.1h-295.8c-17.7 0-32.1-14.3-32.1-32v-534.7c0-17.7 14.4-32.1 32.1-32.1h295.8c17.7 0 32.1 14.4 32.1 32.1v534.7c0 17.7-14.4 32-32.1 32z"/>
							</g>
							<g id="&lt;Group&gt;">
								<path id="&lt;Path&gt;" class="s2" d="m315.1 572.8h-258.2c-17.7 0-32-14.3-32-32v-472.1c0-17.7 14.3-32.1 32-32.1h258.2c17.7 0 32 14.4 32 32.1v472.1c0 17.7-14.3 32-32 32z"/>
								<path id="&lt;Path&gt;" class="s1" d="m315.1 572.8h-258.2c-17.7 0-32-14.3-32-32v-472.1c0-17.7 14.3-32.1 32-32.1h258.2c17.7 0 32 14.4 32 32.1v472.1c0 17.7-14.3 32-32 32z"/>
							</g>
						</g>
					</g>
					<g id="&lt;Group&gt;">
						<path id="&lt;Path&gt;" class="s3" d="m1 0h372v612h-372z"/>
					</g>
				</g>
			</g>
		</g>
	</g>
</svg>